# xmcd CD database file
#
# Track frame offsets:
#	225
#	30005
#	53249
#	72238
#	82979
#
# Disc length: 1355 seconds
#
# Revision: 0
# Processed by: cddbd v1.5.1PL2 Copyright (c) Steve Scherf et al.
# Submitted via: CDex 1.51
#
DISCID=31054805
DTITLE=A Marca Bavaria - Beats of Brazil
DYEAR=2003
DGENRE=World music
TTITLE0=A Bossa electrica  -  tombo in 7/4
TTITLE1=Salome De Bahia  -  Theme of Rio
TTITLE2=Astrud Gilberto (Verve remix by Theivery corporatio )
TTITLE3=Bet E. and Stef  -  so danco samba
TTITLE4=Bebel Gilberto (remixed by king Britt )  -  august day song
EXTD=YEAR: 2003
EXTT0=
EXTT1=
EXTT2=
EXTT3=
EXTT4=
PLAYORDER=
